PathFileType	4	(X/Y/Z)	 2.2Hz3min.trc
DataRate	CameraRate	NumFrames	NumMarkers	Units	OrigDataRate	OrigDataStartFrame	OrigNumFrames
200	200	8	43	m	200	751	1000
Frame#	Time	C7			LSH			RSH			MAN			RASI			LASI			HIPR			HIPL			RPSI			LPSI			COX			RTHI1			RTHI2			RTHI3			RTHI4			RLKN			RMKN			RSHA1			RSHA2			RSHA3			RSHA4			RLMAL			RMMAL			RHEEL			RMET5			RMET1			RTOE			LTHI1			LTHI2			LTHI3			LTHI4			LLKN			LMKN			LSHA1			LSHA2			LSHA3			LSHA4			LLMAL			LMMAL			LHEEL			LMET5			LMET1			LTOE			
		X1	Y1	Z1	X2	Y2	Z2	X3	Y3	Z3	X4	Y4	Z4	X5	Y5	Z5	X6	Y6	Z6	X7	Y7	Z7	X8	Y8	Z8	X9	Y9	Z9	X10	Y10	Z10	X11	Y11	Z11	X12	Y12	Z12	X13	Y13	Z13	X14	Y14	Z14	X15	Y15	Z15	X16	Y16	Z16	X17	Y17	Z17	X18	Y18	Z18	X19	Y19	Z19	X20	Y20	Z20	X21	Y21	Z21	X22	Y22	Z22	X23	Y23	Z23	X24	Y24	Z24	X25	Y25	Z25	X26	Y26	Z26	X27	Y27	Z27	X28	Y28	Z28	X29	Y29	Z29	X30	Y30	Z30	X31	Y31	Z31	X32	Y32	Z32	X33	Y33	Z33	X34	Y34	Z34	X35	Y35	Z35	X36	Y36	Z36	X37	Y37	Z37	X38	Y38	Z38	X39	Y39	Z39	X40	Y40	Z40	X41	Y41	Z41	X42	Y42	Z42	X43	Y43	Z43	
751	3.7550	-0.245931	1.439215	-0.535956	-0.167185	1.422996	-0.683259	-0.179076	1.410773	-0.376755	-0.129122	1.372808	-0.530026	-0.110941	0.942769	-0.422045	-0.116539	0.949269	-0.648251	-0.169230	1.019348	-0.390676	-0.181930	1.003837	-0.681227	-0.272320	1.001528	-0.478692	-0.278280	0.997835	-0.563462	-0.279436	1.000727	-0.526033	-0.231925	0.772972	-0.349393	-0.213564	0.716961	-0.341107	-0.151663	0.732965	-0.333904	-0.162018	0.793659	-0.341491	-0.189645	0.532512	-0.341799	-0.174479	0.503114	-0.471916	-0.276786	0.410477	-0.325893	-0.282631	0.369159	-0.336879	-0.222337	0.400611	-0.314393	-0.224972	0.361211	-0.319495	-0.272232	0.162123	-0.339868	-0.243568	0.169281	-0.417942	-0.324806	0.158123	-0.387824	-0.193727	0.078104	-0.312805	-0.156002	0.075771	-0.378676	-0.136303	0.065895	-0.372073	-0.217583	0.768857	-0.720023	-0.195593	0.711821	-0.728687	-0.132870	0.729536	-0.727771	-0.147381	0.787453	-0.720465	-0.174737	0.525588	-0.731186	-0.154957	0.506342	-0.607222	-0.261790	0.375129	-0.744193	-0.268870	0.335397	-0.736881	-0.209306	0.328186	-0.749733	-0.209317	0.371812	-0.756716	-0.252520	0.168665	-0.742330	-0.233381	0.180694	-0.661687	-0.312746	0.169494	-0.691162	-0.194158	0.080452	-0.757749	-0.157447	0.074012	-0.692092	-0.139474	0.058364	-0.697270	
752	3.7600	-0.245399	1.436667	-0.535950	-0.166465	1.420354	-0.683198	-0.178608	1.408131	-0.376662	-0.128610	1.370122	-0.529985	-0.111508	0.940157	-0.421958	-0.116823	0.946510	-0.648239	-0.169894	1.016621	-0.390762	-0.182247	1.000962	-0.681234	-0.272962	0.998622	-0.478900	-0.278955	0.995058	-0.563579	-0.279973	0.998006	-0.526217	-0.232093	0.770183	-0.349289	-0.213525	0.714252	-0.340937	-0.151677	0.730476	-0.333818	-0.162256	0.791136	-0.341482	-0.189076	0.529992	-0.341498	-0.173815	0.500621	-0.471558	-0.276405	0.408096	-0.325691	-0.282286	0.366771	-0.336747	-0.221999	0.398114	-0.314122	-0.224709	0.358730	-0.319241	-0.272669	0.159856	-0.339814	-0.243790	0.166958	-0.417793	-0.325100	0.155964	-0.387815	-0.194320	0.075942	-0.312420	-0.156348	0.073638	-0.378163	-0.136671	0.063956	-0.371472	-0.217496	0.766013	-0.720232	-0.195314	0.709057	-0.728986	-0.132631	0.727010	-0.728157	-0.147357	0.784871	-0.720762	-0.174032	0.522984	-0.731433	-0.154269	0.503904	-0.607442	-0.261372	0.372800	-0.744403	-0.268559	0.333074	-0.737063	-0.209018	0.325731	-0.749934	-0.208917	0.369329	-0.756940	-0.252606	0.166188	-0.742401	-0.233513	0.178349	-0.661758	-0.312861	0.167344	-0.691339	-0.194484	0.077606	-0.757346	-0.157846	0.071559	-0.691683	-0.139901	0.056011	-0.696811	
753	3.7650	-0.244847	1.433865	-0.535921	-0.165751	1.417483	-0.683120	-0.178172	1.405254	-0.376590	-0.128102	1.367187	-0.529952	-0.112091	0.937293	-0.421869	-0.117108	0.943494	-0.648225	-0.170564	1.013658	-0.390844	-0.182555	0.997817	-0.681247	-0.273609	0.995498	-0.479115	-0.279633	0.992042	-0.563690	-0.280465	0.994982	-0.526414	-0.232278	0.767167	-0.349189	-0.213495	0.711303	-0.340778	-0.151702	0.727769	-0.333741	-0.162519	0.788383	-0.341480	-0.188469	0.527237	-0.341214	-0.173062	0.497859	-0.471145	-0.275988	0.405521	-0.325495	-0.281936	0.364197	-0.336601	-0.221625	0.395392	-0.313840	-0.224429	0.356016	-0.318995	-0.273184	0.157395	-0.339789	-0.244032	0.164425	-0.417652	-0.325438	0.153667	-0.387854	-0.195100	0.073523	-0.312081	-0.156822	0.071204	-0.377603	-0.137200	0.061675	-0.370758	-0.217419	0.762946	-0.720446	-0.195066	0.706061	-0.729282	-0.132424	0.724239	-0.728545	-0.147337	0.782040	-0.721056	-0.173278	0.520128	-0.731708	-0.153516	0.501163	-0.607697	-0.260910	0.370227	-0.744664	-0.268225	0.330517	-0.737293	-0.208707	0.323028	-0.750132	-0.208464	0.366591	-0.757164	-0.252751	0.163490	-0.742463	-0.233686	0.175759	-0.661827	-0.313036	0.165031	-0.691504	-0.194962	0.074463	-0.756923	-0.158365	0.068816	-0.691237	-0.140469	0.053324	-0.696326	
754	3.7700	-0.244299	1.430800	-0.535898	-0.165055	1.414377	-0.683027	-0.177757	1.402133	-0.376544	-0.127594	1.364002	-0.529924	-0.112690	0.934182	-0.421777	-0.117395	0.940214	-0.648209	-0.171250	1.010450	-0.390920	-0.182848	0.994412	-0.681270	-0.274261	0.992163	-0.479339	-0.280294	0.988779	-0.563815	-0.280916	0.991652	-0.526616	-0.232477	0.763917	-0.349098	-0.213464	0.708130	-0.340631	-0.151733	0.724854	-0.333672	-0.162799	0.785411	-0.341481	-0.187783	0.524258	-0.340911	-0.172198	0.494840	-0.470684	-0.275539	0.402759	-0.325286	-0.281569	0.361420	-0.336438	-0.221209	0.392452	-0.313545	-0.224125	0.353069	-0.318745	-0.273775	0.154739	-0.339792	-0.244319	0.161683	-0.417524	-0.325843	0.151213	-0.387944	-0.196065	0.070815	-0.311663	-0.157429	0.068481	-0.376982	-0.137869	0.059094	-0.369964	-0.217356	0.759645	-0.720659	-0.194844	0.702831	-0.729576	-0.132246	0.721213	-0.728924	-0.147331	0.778959	-0.721343	-0.172470	0.517024	-0.732006	-0.152690	0.498120	-0.607992	-0.260404	0.367416	-0.744968	-0.267873	0.327715	-0.737570	-0.208372	0.320069	-0.750320	-0.207957	0.363590	-0.757397	-0.252969	0.160576	-0.742508	-0.233902	0.172958	-0.661880	-0.313291	0.162549	-0.691655	-0.195566	0.071058	-0.756471	-0.159008	0.065803	-0.690793	-0.141158	0.050326	-0.695831	
755	3.7750	-0.243755	1.427476	-0.535875	-0.164376	1.411034	-0.682920	-0.177354	1.398765	-0.376533	-0.127086	1.360547	-0.529886	-0.113301	0.930818	-0.421679	-0.117686	0.936670	-0.648190	-0.171946	1.007002	-0.390990	-0.183118	0.990755	-0.681298	-0.274911	0.988619	-0.479569	-0.280928	0.985260	-0.563956	-0.281338	0.988035	-0.526822	-0.232686	0.760437	-0.349021	-0.213432	0.704728	-0.340503	-0.151771	0.721723	-0.333606	-0.163093	0.782218	-0.341486	-0.187000	0.521056	-0.340577	-0.171232	0.491566	-0.470182	-0.275055	0.399800	-0.325064	-0.281181	0.358477	-0.336251	-0.220758	0.389285	-0.313247	-0.223803	0.349913	-0.318482	-0.274433	0.151902	-0.339825	-0.244667	0.158740	-0.417418	-0.326318	0.148606	-0.388089	-0.197177	0.067813	-0.311272	-0.158110	0.065498	-0.376337	-0.138641	0.056211	-0.369141	-0.217307	0.756100	-0.720865	-0.194653	0.699349	-0.729868	-0.132101	0.717932	-0.729286	-0.147339	0.775626	-0.721616	-0.171613	0.513669	-0.732325	-0.151786	0.494780	-0.608333	-0.259857	0.364365	-0.745310	-0.267493	0.324692	-0.737879	-0.208010	0.316842	-0.750501	-0.207403	0.360326	-0.757629	-0.253279	0.157453	-0.742526	-0.234195	0.169946	-0.661910	-0.313641	0.159878	-0.691774	-0.196274	0.067481	-0.756007	-0.159736	0.062538	-0.690334	-0.141952	0.047057	-0.695320	
756	3.7800	-0.243209	1.423888	-0.535840	-0.163714	1.407451	-0.682800	-0.176968	1.395141	-0.376542	-0.126583	1.356852	-0.529836	-0.113921	0.927198	-0.421576	-0.117975	0.932866	-0.648167	-0.172640	1.003312	-0.391051	-0.183353	0.986853	-0.681328	-0.275553	0.984855	-0.479807	-0.281526	0.981482	-0.564115	-0.281750	0.984145	-0.527031	-0.232904	0.756730	-0.348961	-0.213396	0.701101	-0.340387	-0.151815	0.718391	-0.333545	-0.163395	0.778808	-0.341493	-0.186138	0.517629	-0.340217	-0.170157	0.488037	-0.469640	-0.274510	0.396642	-0.324835	-0.280759	0.355334	-0.336051	-0.220267	0.385896	-0.312940	-0.223464	0.346536	-0.318203	-0.275148	0.148873	-0.339881	-0.245082	0.155602	-0.417343	-0.326865	0.145854	-0.388280	-0.198434	0.064542	-0.310910	-0.158940	0.062222	-0.375665	-0.139548	0.053008	-0.368343	-0.217273	0.752309	-0.721057	-0.194478	0.695620	-0.730157	-0.131983	0.714397	-0.729627	-0.147360	0.772042	-0.721863	-0.170698	0.510063	-0.732672	-0.150800	0.491144	-0.608727	-0.259278	0.361073	-0.745686	-0.267091	0.321439	-0.738212	-0.207631	0.313354	-0.750675	-0.206809	0.356796	-0.757861	-0.253711	0.154144	-0.742512	-0.234602	0.166721	-0.661912	-0.314116	0.157009	-0.691824	-0.197077	0.063697	-0.755522	-0.160561	0.059080	-0.689887	-0.142843	0.043674	-0.694786	
757	3.7850	-0.242684	1.420040	-0.535809	-0.163067	1.403623	-0.682668	-0.176593	1.391266	-0.376565	-0.126114	1.352920	-0.529773	-0.114551	0.923323	-0.421470	-0.118261	0.928806	-0.648147	-0.173330	0.999383	-0.391109	-0.183577	0.982724	-0.681359	-0.276180	0.980866	-0.480051	-0.282081	0.977442	-0.564299	-0.282177	0.980013	-0.527245	-0.233130	0.752784	-0.348923	-0.213354	0.697244	-0.340284	-0.151864	0.714837	-0.333483	-0.163696	0.775181	-0.341505	-0.185181	0.513976	-0.339819	-0.168969	0.484268	-0.469075	-0.273905	0.393283	-0.324592	-0.280297	0.352007	-0.335834	-0.219737	0.382282	-0.312612	-0.223099	0.342937	-0.317901	-0.275904	0.145654	-0.339926	-0.245564	0.152277	-0.417298	-0.327487	0.142945	-0.388510	-0.199769	0.061030	-0.310600	-0.159883	0.058703	-0.375093	-0.140581	0.049472	-0.367635	-0.217252	0.748266	-0.721237	-0.194312	0.691641	-0.730437	-0.131875	0.710606	-0.729947	-0.147398	0.768198	-0.722076	-0.169725	0.506200	-0.733048	-0.149742	0.487219	-0.609177	-0.258678	0.357546	-0.746092	-0.266694	0.317962	-0.738574	-0.207244	0.309610	-0.750850	-0.206189	0.353021	-0.758107	-0.254319	0.150666	-0.742459	-0.235120	0.163327	-0.661888	-0.314765	0.153900	-0.691776	-0.197990	0.059777	-0.755036	-0.161578	0.055583	-0.689326	-0.143888	0.040735	-0.693992	
758	3.7900	-0.242199	1.415928	-0.535819	-0.162439	1.399547	-0.682530	-0.176225	1.387128	-0.376593	-0.125692	1.348750	-0.529693	-0.115192	0.919195	-0.421363	-0.118543	0.924483	-0.648132	-0.174020	0.995210	-0.391163	-0.183793	0.978372	-0.681397	-0.276793	0.976650	-0.480298	-0.282591	0.973144	-0.564503	-0.282630	0.975672	-0.527458	-0.233361	0.748597	-0.348910	-0.213305	0.693163	-0.340195	-0.151917	0.711065	-0.333420	-0.164009	0.771342	-0.341525	-0.184116	0.510098	-0.339372	-0.167664	0.480274	-0.468488	-0.273245	0.389704	-0.324323	-0.279798	0.348468	-0.335615	-0.219170	0.378443	-0.312265	-0.222711	0.339121	-0.317576	-0.276714	0.142244	-0.339980	-0.246132	0.148760	-0.417289	-0.328189	0.139878	-0.388780	-0.201222	0.057225	-0.310344	-0.160961	0.054871	-0.374640	-0.141774	0.045616	-0.367081	-0.217243	0.743963	-0.721399	-0.194149	0.687410	-0.730707	-0.131779	0.706558	-0.730214	-0.147451	0.764099	-0.722249	-0.168691	0.502093	-0.733458	-0.148608	0.483027	-0.609687	-0.258070	0.353804	-0.746531	-0.266319	0.314271	-0.738962	-0.206879	0.305604	-0.751034	-0.205564	0.348988	-0.758387	-0.255187	0.147038	-0.742353	-0.235844	0.159755	-0.661822	-0.315674	0.150501	-0.691595	-0.199082	0.055787	-0.754575	-0.162853	0.052258	-0.688691	-0.145023	0.038347	-0.693139	
